#define icon_width 16
#define icon_height 16
static unsigned char icon_bits[] = {
   0x00, 0x00, 0x02, 0x00, 0x02, 0x00, 0x82, 0x1f, 0x82, 0x00, 0x82, 0x00,
   0x82, 0x00, 0x82, 0x03, 0x82, 0x3f, 0x02, 0x60, 0x02, 0x40, 0x0e, 0x40,
   0xfe, 0x41, 0x00, 0x40, 0x00, 0x7f, 0x00, 0x00 };
